<mxfile host="app.diagrams.net" modified="2024-05-07T09:14:16.065Z" agent="Mozilla/5.0 (X11; Ubuntu; Linux x86_64; rv:125.0) Gecko/20100101 Firefox/125.0" version="24.2.5" etag="IiSzriox11D-ldZ87u0H" type="github">
  <diagram name="Page-1" id="tiMQxRRkBQc3sw8JgZWi">
    <mxGraphModel>
      <root>
        <mxCell id="0" />
        <mxCell id="1" parent="0" />
      </root>
    </mxGraphModel>
  </diagram>
</mxfile>
